<?xml version="1.0" encoding="utf-8"?>
<!-- Generator: Adobe Illustrator 15.0.0, SVG Export Plug-In . SVG Version: 6.00 Build 0)  -->
<!DOCTYPE svg PUBLIC "-//W3C//DTD SVG 1.1//EN" "http://www.w3.org/Graphics/SVG/1.1/DTD/svg11.dtd">
                <svg version="1.1" id="图层_1" xmlns="http://www.w3.org/2000/svg" xmlns:xlink="http://www.w3.org/1999/xlink"
                  x="0px" y="0px" viewBox="500 -260 900 600" enable-background="new 500 -260 900 600"
                  xml:space="preserve">
                  <image overflow="visible" enable-background="new    " width="3840" height="2707"
                    xlink:href="../../assets/eqpt.png" transform="matrix(0.24 0 0 0.24 489 -234)">
                  </image>
                  <polygon id="M0" opacity="0.6" fill="#FFFFFF" enable-background="new    " points="770.75,232.5 738.5,186 738.5,181 735.75,183 
	719.25,157.75 705.75,159.5 711.75,207.25 703.25,209 697.5,157.75 689.75,145 695,181 686.75,184.5 682,135.5 648.25,143 
	633.25,120.5 631.5,108 631.5,96.25 637.5,94 650,66.75 654,64 659.5,64 662.75,67.75 667.25,69.75 671,75 673.25,81.75 676.5,84 
	683,82.5 691.25,90.841 688.5,72 686.25,69 677.5,9 716.5,-1.5 716.5,-6.5 808,-31.5 806.5,-46 808,-47.75 811.5,-47.75 
	813.25,-32.75 819.75,-33.25 881.5,29 881.5,46.25 910.75,75.5 910.75,86.5 914,86 915.25,88 911.75,90.5 912,117.5 915.25,116.5 
	915.25,119.25 912.75,120.5 912.25,133.5 918.75,140.25 920.75,199.75 810.5,238 810.75,233.75 " />
                  <path id="M1" opacity="0.6" fill="#FFFFFF" enable-background="new    " d="M1127.5,0l1.5-14.25l45-13.5l21.125-5.875l9.375,5.75
	l1.625-11.5l1-2.125h1.375l2.25-0.25l1,1.375l-1.25,5.625l-1.5,10L1225.5-13l5.75-43.75l-90.5-58.25l-26.75,7.5v-3l-1.5-3.75l-3.5-3
	l-5.5-2.75l-3.75-3.25l-4.5-1.5l-4.5,2.25l-3.5,1.5l-1.75,3.25l-1.5,5l-1.25,8.75l-49.25,14.25v3.25l-39.75,10.75L986-66l-1.75,70
	L986,18.25l0.334,8.083l5.5,6.167l-0.667,8.333l-1,1.5h-1.833l-1.167,1.333l-0.833,2.5c0,0,0.5,1.833,1,2.833s-0.5,1.667-0.5,1.667
	l-0.667,1L986.834,54l0.667,2l0.666,4.333l0.334,3l29.666,26.333l4.5-1.5l4.334,3.667l4,1.333l2,1.958l2.5,2.542l4.333,0.833
	l1.167,1.5l0.5,1.5l-1.167,0.667l2.333,2.333l5.5,4.834l1.667,1.333l9.333-3.167l8.667-0.166l5.167,5.5l6-1.667l16.166,13.333h3.167
	l0.167-2.833l9.249-4.333l9.251-1L1127.5,0z" />
                </svg>